<svg width="478px" height="521px" viewBox="0 0 478 521" fill="none" xmlns="http://www.w3.org/2000/svg" transform="rotate(0) scale(1, 1)">
<path fill-rule="evenodd" clip-rule="evenodd" d="M31.7456 83.6093C30.709 83.6464 30.0435 83.3197 29.9433 82.3763C29.7695 80.7531 30.4606 79.6061 32.0392 79.0334C32.9044 78.7196 33.2323 79.1791 33.325 79.9411C33.5155 81.5068 32.5532 82.5506 31.7456 83.6093ZM312.016 -9.6474C308.166 -6.82843 304.014 -4.50148 300.029 -1.90572C303.27 -5.61318 307.214 -8.28136 312.016 -9.6474ZM23.836 89.6979C18.8792 98.1023 14.2807 106.699 9.81697 115.368C12.3995 105.692 17.3977 97.3109 23.836 89.6979ZM-6.10081 234.862C-8.05837 249.712 -13.6722 263.269 -20.134 276.541C-15.2384 263.253 -10.3298 249.976 -6.71251 236.276C-6.58208 235.786 -6.30739 235.333 -6.10081 234.862ZM372.241 283.625C384.203 275.866 393.017 264.976 404.596 257.336C402.658 263.13 377.124 284.296 372.241 283.625ZM455.595 91.1902C456.38 93.7337 457.395 96.2338 457.908 98.8299C460.015 109.467 461.171 120.243 462.357 131.009C464.116 146.982 461.908 162.872 460.978 178.772C460.548 186.108 459.133 193.429 454.584 199.686C439.546 220.364 422.12 238.618 401.444 254.087C384.943 266.433 369.831 280.575 353.632 293.336C342.069 302.447 329.305 309.888 315.622 315.629C304.223 320.411 292.2 323.292 280.424 326.941C270.741 329.941 260.991 332.702 251.441 336.246C244.714 338.742 237.103 339.383 229.899 340.925C217.215 343.639 205.056 347.515 194.201 354.848C184.187 361.615 175.077 369.437 166.896 378.205C150.33 395.955 136.877 415.995 124.264 436.563C117.491 447.61 110.578 458.527 102.239 468.489C86.8962 486.819 67.5365 499.239 44.4072 505.662C26.3253 510.682 9.98997 507.136 -4.19685 494.717C-28.8552 473.13 -42.7751 446.679 -42.0353 413.545C-41.462 387.884 -35.5268 363.397 -25.7133 339.671C-19.5922 324.874 -11.9856 310.754 -5.82587 295.981C2.56655 275.859 10.4819 255.6 13.7179 233.91C16.2235 217.124 16.413 200.218 16.2788 183.312C16.1647 168.881 17.628 154.644 20.9806 140.598C24.8495 124.387 31.6451 109.632 43.306 97.3159C44.6955 95.8514 44.6627 95.8212 44.0371 93.6309C43.8476 92.966 44.3916 92.7568 44.7697 92.4004C48.2198 89.1575 52.0615 86.5601 56.6483 85.1156C59.7464 84.1393 64.5591 83.9798 65.7319 82.4774C69.4939 77.6544 74.9293 78.788 79.1676 78.1864C84.4255 77.4417 90.0343 77.1651 95.5322 77.1627C109.333 77.1543 123.083 77.7817 136.596 80.4804C148.991 82.9537 161.426 85.2205 173.984 83.2207C177.623 82.6396 182.892 85.5872 185.256 80.028C185.257 80.0261 185.701 80.233 185.949 80.303C190.351 81.5452 194.867 81.4798 199.186 80.3711C203.312 79.3142 207.561 79.5996 211.639 78.5555C218.221 76.8707 225.269 77.3396 231.518 73.9501C234.362 72.4088 237.628 71.5809 240.764 70.6271C247.745 68.504 253.68 64.1585 260.57 61.6816C263.151 60.7536 265.787 57.4868 268.406 55.3344C277.796 47.6181 283.554 37.2232 290.395 27.5629C296.829 18.4746 302.848 8.62911 314.22 4.44128C318.809 2.75253 323.318 -0.109795 328.437 0.943366C342.198 3.78026 356.598 3.10791 369.874 8.69294C380.206 13.0393 391.586 14.6157 401.3 20.78C410.8 26.8084 420.721 32.3067 428.785 40.1501C432.743 43.9999 436.781 47.8966 439.665 52.9491C446.595 65.0884 451.687 77.8678 455.595 91.1902ZM-55.1191 363.298C-55.1179 364.083 -54.9881 364.894 -55.138 365.651C-58.8871 384.552 -60.6016 403.588 -59.3208 422.841C-59.2751 423.537 -58.9774 424.421 -59.8702 425.112C-60.0691 423.843 -60.284 422.66 -60.4343 421.468C-62.4059 405.756 -60.9003 390.186 -58.2092 374.69C-57.539 370.834 -57.3468 366.776 -55.0181 363.342C-55.9701 359.251 -53.2986 355.772 -52.9581 351.881C-52.8992 351.199 -51.9822 350.206 -50.7464 350.845C-50.3367 351.058 -50.0024 351.421 -50.3143 351.724C-53.5914 354.919 -52.387 359.903 -55.1191 363.298ZM-9.81085 299.97C-11.3086 305.505 -14.1725 310.415 -17.0429 315.319C-14.582 310.228 -13.2982 304.588 -9.70763 300.02C-9.53567 296.257 -7.41029 293.243 -5.69383 290.075C-6.37213 293.647 -7.73735 296.95 -9.81085 299.97ZM396.794 289.272C403.446 284.312 410.088 279.48 414.566 272.155C417.271 267.729 420.942 263.742 424.786 260.199C426.182 258.915 426.23 257.316 427.441 256.047C430.268 253.087 433.915 251.212 436.478 247.74C442.254 239.915 448.086 232.152 453.613 224.135C457.26 218.846 461.226 213.728 464.713 208.323C471.208 198.252 474.179 187.005 475.131 175.229C476.232 161.622 477.78 148.004 477.97 134.377C478.324 108.982 474.057 84.4607 463.565 60.9193C457.243 46.7367 450.002 33.252 438.489 22.9389C420.074 6.44632 398.709 -5.28153 374.142 -10.7013C373.222 -10.9048 372.335 -11.2554 371.441 -11.5642C363.339 -14.3656 355.162 -16.6336 346.418 -16.4019C342.093 -16.2894 337.767 -16.7458 333.454 -17.39C320.664 -19.3012 309.737 -14.8901 299.859 -7.24084C289.917 0.458752 282.564 10.5223 276.556 21.1036C268.528 35.2425 256.936 44.2415 242.239 50.4321C228.569 56.1904 214.13 57.8789 199.629 59.5464C190.731 60.57 181.848 61.7649 172.938 62.6687C158.574 64.1232 144.6 61.6239 130.545 58.9685C112.245 55.5128 93.7107 54.2448 75.0385 55.7343C59.4136 56.9804 45.5173 62.892 33.2276 71.9829C26.1473 77.2207 19.4766 83.2636 14.8749 91.1811C10.3933 98.8895 6.058 106.611 3.18524 115.057C-3.72253 135.357 -6.5079 156.277 -6.65235 177.608C-6.81698 201.963 -8.447 226.126 -16.7347 249.396C-22.8758 266.639 -30.0575 283.45 -38.0578 299.929C-48.9516 322.368 -58.4632 345.297 -63.1431 369.888C-67.6785 393.725 -69.5224 417.747 -62.058 441.173C-50.8228 476.432 -28.817 502.878 7.28213 515.416C33.9822 524.686 59.7638 519.706 84.2543 506.642C88.6763 504.283 93.0934 501.913 97.4349 499.414C108.587 492.994 118.146 484.838 126.093 474.697C130.724 468.787 135.005 462.63 139.573 456.736C144.933 449.818 149.55 442.522 153.953 435.092C159.053 426.487 164.898 418.462 171.1 410.64C173.259 407.915 173.998 404.407 176.386 401.681C185.416 391.374 194.195 380.843 204.953 372.182C210.76 367.507 216.386 362.829 223.696 360.045C228.179 358.34 232.83 357.235 237.262 355.466C243.9 352.815 250.979 351.945 257.974 351C260.66 350.638 261.786 346.952 262.168 347.558C264.229 350.834 265.487 347.712 266.986 347.339C267.872 347.118 268.663 346.282 269.524 346.235C284.167 345.43 297.637 339.796 311.481 335.921C324.333 332.325 337.686 329.494 349.153 322.306C353.334 319.683 357.742 317.36 361.901 314.67C366.889 311.443 371.128 306.988 376.689 304.778C384.522 301.666 390.026 295.619 396.326 290.559C396.672 290.281 396.712 289.629 396.904 289.142C392.735 290.806 390.61 295.23 386.243 296.682C391.715 291.788 396.623 286.259 403.19 282.597C401.058 284.822 398.926 287.046 396.794 289.272Z" fill="#dfbd69"/>
<path fill-rule="evenodd" clip-rule="evenodd" d="M44.2038 253.451C41.8318 263.221 37.1519 271.975 31.8445 280.45C36.0048 271.467 40.3382 262.563 44.2038 253.451ZM16.8053 314.061C16.4227 313.876 16.0402 313.69 15.6576 313.505C20.1402 304.218 23.7511 294.533 29.6131 285.874L16.8053 314.061ZM321.484 39.6358C324.452 34.0897 337.126 28.143 340.72 30.1077C334.245 32.9346 327.277 35.0631 321.484 39.6358ZM64.0387 152.619C67.8163 140.569 72.9337 129.288 83.5723 121.361C76.0115 131.146 69.2816 141.42 64.0387 152.619ZM8.81539 331.37C0.714035 352.055 -5.64877 373.103 -7.95551 395.199C-10.19 381.855 2.66676 339.085 8.81539 331.37ZM322.977 230.031C329.819 223.606 337.701 218.524 345.602 213.571C353.681 208.505 361.196 202.692 368.987 197.264C376.352 192.133 382.959 185.938 389.899 180.212C371.052 201.439 346.267 214.72 322.977 230.031ZM149.381 126.448C148.905 126.665 148.156 126.772 148.011 127.121C147.75 127.753 148.467 127.822 148.947 128.044C150.299 128.675 151.76 127.748 153.223 128.731C155.919 130.548 158.888 131.461 162.363 131.721C165.325 131.943 168.11 134.15 171.029 135.347C171.68 135.615 172.722 135.882 173.292 135.111C174.347 133.679 175.048 134.359 175.716 135.383C176.538 136.648 177.826 137.06 179.194 137.16C184.125 137.525 189.007 138.519 194.018 137.557C197.251 136.937 201.148 136.304 203.787 136.758C211.138 138.021 217.887 136.109 224.172 133.879C229.863 131.861 235.44 128.978 241.307 127.492C246.375 126.208 249.683 122.497 254.125 120.4C259.503 117.862 263.232 112.523 268.855 109.994C272.308 108.438 273.885 103.866 276.744 103.038C283.353 101.121 285.123 94.2954 290.749 91.4844C292.538 90.5905 295.131 88.9721 296.429 86.8087C299.091 82.3643 303.896 79.8477 306.507 75.2891C309.795 69.5491 315.296 65.4228 318.461 59.4053C320.363 55.7906 323.253 52.5412 325.679 49.148C327.872 46.075 332.389 44.9262 335.964 43.05C341.137 40.3326 346.38 42.1509 351.644 42.0957C364.221 41.9648 375.921 46.0771 386.146 51.9405C406.116 63.3908 416.966 81.0532 415.666 104.729C415.535 107.133 415.397 109.535 415.327 111.941C414.919 126.044 411.132 139.266 405.468 152.195C398.054 169.116 383.9 180.344 370.942 192.393C366.41 196.607 360.181 199.596 354.863 203.351C351.223 205.921 347.62 208.593 343.743 210.776C339.834 212.978 336.148 215.482 332.439 217.957C328.737 220.427 325.329 223.361 321.493 225.591C318.082 227.576 315.344 230.355 311.761 232.26C306.971 234.806 302.398 237.982 297.73 240.886C280.94 251.329 263.529 260.607 245.363 268.515C235.295 272.898 225.026 276.977 215.416 282.214C184.355 299.136 159.682 323.07 139.734 351.796C130.819 364.635 122.531 377.902 114.108 391.068C102.048 409.921 84.9146 423.35 66.2522 435.206C54.6494 442.578 41.9196 445.755 28.2515 444.861C20.4614 444.349 13.4273 442.206 9.50813 434.385C5.85845 427.103 5.39143 419.063 4.51359 411.4C3.99326 406.843 4.62331 401.517 5.41038 396.548C7.30053 384.628 8.86164 372.645 13.4894 361.379C14.5891 358.697 13.9997 355.949 15.0984 353.269C16.504 349.838 18.955 346.997 20.0545 343.386C20.6837 341.314 20.1602 339.216 21.1585 337.178C27.4821 324.259 31.9025 310.481 39.6706 298.198C42.3692 293.934 44.1734 289.128 46.5474 284.653C55.4548 267.854 60.465 249.922 61.5464 231.1C62.8725 208.026 67.2557 185.541 74.321 163.612C77.0219 155.228 79.296 146.433 85.1182 139.247C88.496 135.08 91.703 130.065 96.4512 128.14C103.473 125.29 110.798 122.284 118.747 122.536C120.665 122.597 122.764 120.821 123.47 121.005C126.183 121.721 129.023 121.789 131.679 122.65C137.419 124.508 142.856 127.818 149.381 126.448ZM287.556 80.3933C287.475 81.612 286.451 82.2177 285.682 82.8622C278.366 88.9951 271.243 95.3876 263.1 100.473C258.335 103.448 254.141 107.409 248.543 109.013C257.636 103.554 265.495 96.4547 274.184 90.4732C278.795 87.2991 282.453 82.8625 287.657 80.4523C292.168 74.2949 298.547 70.0143 303.761 64.5628C298.706 70.19 294.196 76.3717 287.556 80.3933ZM314.34 250.259C313.345 250.394 312.547 250.795 311.783 250.006C313.191 249.4 314.227 247.82 316.095 249.339C317.179 250.223 318.065 248.816 318.877 248.261C326.171 243.265 333.521 238.33 340.855 233.418C347.839 228.744 354.576 223.645 361.926 219.502C365.616 217.422 368.593 214.451 371.889 211.885C373.403 210.706 374.87 209.655 376.736 209.091C380.53 207.943 380.549 207.653 377.486 204.795C377.231 204.556 377.196 204.088 377.022 203.63C377.444 203.502 377.822 203.248 378.118 203.319C382.514 204.404 386.824 202.591 389.603 198.917C391.436 196.492 393.344 194.214 396.219 192.537C400.545 190.015 403.246 185.747 405.185 181.153C405.362 180.735 404.999 180.016 405.638 179.784C409.423 178.415 410.327 174.802 411.908 171.804C413.417 168.943 414.178 165.747 415.943 162.953C418.967 158.171 421.146 153.161 422.39 147.483C422.965 144.862 424.666 141.862 424.887 139.071C425.706 128.755 427.015 118.487 427.549 108.127C428.452 90.6231 421.973 75.6163 413.3 61.1354C408.197 52.6165 401.457 45.5583 393.378 39.6852C390.289 37.4399 386.894 35.8933 383.448 34.3222C370.287 28.3167 356.47 25.4939 342.016 26.3462C332.759 26.8919 324.73 30.7374 318.283 37.3424C316.586 39.0801 314.175 40.7515 315.804 44.3933C316.514 45.9795 313.911 48.5527 312.334 50.4259C301.181 63.6696 288.641 75.4873 274.911 86.1012C260.459 97.2744 245.59 107.706 228.661 115.114C216.372 120.492 203.611 122.489 190.353 123.142C179.735 123.665 169.926 121.08 160.11 117.71C152.756 115.184 145.206 113.219 137.826 110.761C135.21 109.889 134.433 112.221 131.811 113.506C134.323 110.181 133.554 109.992 130.584 109.797C127.616 109.601 124.566 108.519 121.542 107.852C115.067 106.426 108.502 106.476 102.282 108.29C99.9229 108.979 97.5856 108.359 95.4557 109.345C92.7697 110.588 89.9503 111.651 87.4918 113.25C83.1434 116.076 78.3771 118.465 76.555 124.049C76.0515 125.592 73.0397 125.676 71.913 127.597C67.0884 135.816 61.7102 143.808 59.1038 153.051C52.9012 175.044 48.7292 197.376 46.4325 220.144C44.8324 235.996 41.4732 251.684 33.8616 266.097C22.6619 287.306 12.6761 309.073 3.41926 331.16C-5.35502 352.098 -11.7843 373.634 -12.926 396.449C-13.4047 406.028 -12.5396 415.44 -10.3581 424.778C-7.24415 438.107 1.79405 446.062 14.1374 450.623C37.8434 459.382 60.5211 456.267 82.0453 443.638C96.5219 435.145 109.807 425.065 121.43 412.998C126.885 407.334 132.473 401.818 135.616 394.244C137.116 390.631 140.676 387.863 143.236 384.66C151.988 373.71 158.554 361.276 167.383 350.341C171.314 345.471 175.679 341.04 179.759 336.337C188.665 326.073 199.393 317.66 209.67 308.861C218.688 301.14 229.573 296.044 240.357 290.985C251.978 285.536 263.555 279.986 275.047 274.279C281.686 270.983 288.663 267.975 294.466 263.535C298.498 260.451 303.334 258.921 307.122 255.543C309.295 253.605 313.155 253.816 314.34 250.259Z" fill="#dfbd69"/>
<path fill-rule="evenodd" clip-rule="evenodd" d="M251.316 222.821C251.639 223.143 251.964 223.466 252.287 223.788C249.35 226.024 248.072 230.243 243.042 229.999C245.8 227.606 248.558 225.214 251.316 222.821ZM103.844 187.02C102.899 178.555 108.008 168.037 113.442 167.307C108.222 173.122 105.844 179.982 103.844 187.02ZM75.7223 269.666C75.3338 269.527 74.9463 269.386 74.5606 269.247C80.6418 255.75 86.724 242.251 92.807 228.756C93.1442 228.901 93.4819 229.047 93.8211 229.193L75.7223 269.666ZM55.4013 309.466C50.9889 321.76 47.0972 334.2 44.6324 347.051C42.1402 360.042 39.98 373.075 38.2496 386.152C40.7123 359.901 43.7812 333.77 55.4013 309.466ZM336.674 145.724C333.049 149.769 330.128 154.229 325.933 157.903C316.443 166.216 307.566 175.218 297.864 183.331C283.41 195.421 269.246 207.828 256.106 221.327C255.282 222.172 254.441 222.98 252.556 221.967C279.415 194.9 309.844 172.232 336.674 145.724ZM72.8949 305.287C73.5512 300.147 77.2936 296.574 79.6743 292.309C80.87 287.291 84.6636 283.569 86.5263 278.861C89.737 270.745 92.7268 262.506 96.5472 254.668C104.456 238.444 109.793 221.557 112.606 203.769C113.652 197.165 112.184 190.273 115.545 183.884C117.6 179.977 118.883 175.594 123.47 173.912C130.266 171.419 137.282 170.465 144.517 171.875C157.892 174.481 170.471 179.634 183.439 183.542C196.916 187.604 210.344 190.814 224.791 188.301C238.609 185.894 251.511 180.931 264.497 176.163C267.128 175.197 269.13 172.637 272.203 171.602C276.494 170.159 281.297 168.66 284.01 164.873C288.907 158.04 296.222 154.055 302.345 148.701C304.354 146.946 307.989 146.551 309.151 143.992C310.702 140.576 313.614 138.903 316.211 136.708C317.226 135.852 318.185 134.799 318.803 133.644C320.846 129.835 324.165 126.821 326.896 123.772C332.259 117.787 336.726 111.578 340.17 104.405C341.164 102.338 340.195 99.8395 342.222 98.1654C344.245 96.4926 345.413 94.1878 346.436 91.8324C347.482 89.427 349.32 87.8039 351.589 86.2883C352.429 87.5667 352.129 88.6465 352.07 89.6734C351.705 96.1318 349.433 102.247 348.577 108.636C347.076 119.843 343.055 130.13 336.284 139.358C331.219 146.263 324.8 151.851 318.539 157.589C306.13 168.961 293.802 180.432 281.057 191.432C273.918 197.594 266.908 203.876 260.097 210.366C248.781 221.149 236.895 231.301 224.91 241.317C215.311 249.338 205.121 256.656 194.099 262.761C184.474 268.089 175.896 274.899 167.273 281.629C150.855 294.442 134.55 307.357 121.908 324.124C110.549 339.187 99.3305 354.358 86.914 368.621C77.6458 379.266 67.6833 389.086 55.2772 396.177C53.9458 396.937 52.3901 398.552 50.9664 397.669C49.7595 396.921 50.4208 394.907 50.5393 393.465C51.789 378.348 54.2259 363.424 57.7199 348.64C58.3509 345.969 60.7384 343.044 58.1967 340.018C57.8381 339.591 58.2193 338.357 58.9078 338.474C61.3415 338.889 60.6861 336.855 60.9686 335.915C62.7548 329.976 64.6407 324.077 66.6475 318.204C68.2166 313.61 71.3025 309.815 72.8949 305.287ZM312.068 124.225C312.327 125.337 311.528 125.919 310.858 126.559C302.363 134.649 292.881 141.611 284.039 149.299C279.794 152.987 273.655 154.02 270.417 159.04C269.862 159.898 269.063 159.923 268.407 159.156C267.546 158.151 268.137 157.292 269.056 156.872C272.64 155.24 275.376 152.488 278.48 150.212C286.475 144.349 294.738 138.899 302.036 132.082C305.072 129.248 308.237 126.167 312.181 124.288C315.408 119.905 319.385 116.27 323.767 113.043C319.746 116.645 317.385 121.937 312.068 124.225ZM136.355 327.032C139.127 327.691 140.459 326.781 142.451 325.174C147.307 321.254 150.252 315.357 156.174 312.622C158.289 311.647 159.435 309.45 160.974 307.852C164.891 303.785 170.24 301.615 174.117 297.85C177.795 294.277 182.287 291.864 185.854 288.277C187.748 286.372 190.706 285.947 192.417 283.694C193.569 282.175 201.98 276.739 203.661 275.895C207.896 273.771 212.071 271.528 216.248 269.293C216.965 268.909 217.646 268.333 217.165 267.357C216.67 266.349 216.999 265.689 218.078 265.808C222.119 266.25 224.758 263.467 227.145 261.266C234.081 254.866 241.405 248.916 248.682 242.938C250.125 241.754 248.695 238.71 252.34 238.847C254.181 238.916 256.494 236.197 258.252 234.268C259.968 232.389 262.054 230.843 263.884 229.058C277.375 215.9 291.393 203.32 305.746 191.077C313.706 184.286 321.075 176.825 328.878 169.848C330.85 168.086 333.217 166.606 335.457 165.146C337.515 163.803 340.459 161.857 341.04 158.703C341.147 158.118 341.283 157.733 341.757 157.409C351.365 150.865 354.166 140.236 357.933 130.373C360.631 123.312 361.115 115.547 362.198 108.133C362.866 103.545 364.762 98.9391 363.99 94.0634C363.217 89.1754 362.638 84.2628 361.27 79.4837C359.944 74.848 357.536 70.9185 353.675 67.9143C351.653 66.3402 349.774 66.5764 347.786 68.1305C342.856 71.9825 339.177 76.6572 337.398 82.6816C336.715 84.9898 336.244 87.3787 334.556 89.2884C333.351 90.6509 335.7 91.6323 334.532 93.84C330.398 101.652 324.272 107.59 318.144 113.651C305.449 126.205 291.256 136.984 276.907 147.569C270.697 152.148 263.825 155.632 256.863 158.966C252.468 161.071 247.997 162.945 243.438 164.656C241.323 165.448 239.815 166.84 241.934 169.056C243.199 170.377 242.198 171.204 241.611 172.181C241.193 172.875 240.499 172.969 239.859 172.617C238.693 171.972 239.37 170.902 239.502 170.082C240.043 166.722 238.888 166.026 235.691 167.154C226.883 170.266 218.014 173.19 208.525 173.554C203.796 173.738 199.103 173.407 194.494 172.521C181.013 169.933 168.129 165.222 154.937 161.599C145.281 158.951 135.582 156.156 125.384 158.068C123.011 158.512 119.657 157.56 118.759 161.256C118.711 161.461 118.432 161.712 118.219 161.761C109.005 163.881 108.864 164.225 104.404 172.187C101.51 177.355 100.131 183.007 99.363 188.573C96.532 209.056 89.0221 227.865 80.5594 246.614C70.2562 269.436 57.6226 291.21 48.4344 314.463C38.3718 339.936 34.3796 366.802 34.3054 394.061C34.2669 408.449 47.222 415.186 60.1735 408.139C73.1048 401.103 84.4407 392.028 94.6251 381.447C106.315 369.3 116.907 356.229 127.766 343.396C130.745 339.876 134.152 336.624 136.682 332.664C137.993 330.611 139.208 329.014 136.355 327.032Z" fill="#dfbd69"/>
</svg>